<svg width="80" height="80" viewBox="0 0 80 80" fill="none" xmlns="http://www.w3.org/2000/svg">
<rect x="2" y="19" width="42" height="42" rx="8.4" fill="currentColor"/>
<path d="M57.4392 46.6299C59.578 46.6299 60.9871 45.3214 61.2387 43.6104H59.7542C59.4774 44.6672 58.5967 45.2963 57.4392 45.2963C55.6779 45.2963 54.5456 43.8368 54.5456 41.5974C54.5456 39.4083 55.703 37.974 57.4392 37.974C58.7477 37.974 59.5277 38.7792 59.7542 39.6599H61.2387C60.9871 37.8482 59.4522 36.6404 57.4141 36.6404C54.7972 36.6404 53.061 38.7037 53.061 41.6477C53.061 44.5414 54.7217 46.6299 57.4392 46.6299ZM63.409 46.4286H64.8936V40.3141C64.8936 39.0057 65.9252 38.0495 67.3343 38.0495C67.7306 38.0495 68.1395 38.125 68.2402 38.1501V36.6404C68.0703 36.6278 67.6803 36.6152 67.4601 36.6152C66.3027 36.6152 65.2962 37.2695 64.9439 38.2256H64.8432V36.7662H63.409V46.4286ZM69.9999 46.4286H71.4845V36.7662H69.9999V46.4286ZM70.7548 35.1558C71.3336 35.1558 71.8116 34.7029 71.8116 34.1493C71.8116 33.5958 71.3336 33.1428 70.7548 33.1428C70.1761 33.1428 69.698 33.5958 69.698 34.1493C69.698 34.7029 70.1761 35.1558 70.7548 35.1558Z" fill="currentColor"/>
</svg>
